<svg t="1726969249185" class="icon" viewBox="0 0 1024 1024" version="1.1" xmlns="http://www.w3.org/2000/svg" p-id="1605" width="256" height="256"><path d="M707.621926 350.549333l-45.037037 6.637037C636.416 179.465481 567.580444 60.681481 498.839704 60.681481c-68.077037 0-136.343704 116.508444-163.081482 291.802075l-44.980148-6.864593C320.587852 150.243556 399.701333 15.17037 498.839704 15.17037c99.972741 0 179.617185 137.462519 208.782222 335.378963zM290.664296 677.641481l44.999111-6.826666c26.661926 175.653926 95.004444 292.503704 163.176297 292.503704 68.266667 0 136.722963-117.229037 163.271111-293.281186l44.999111 6.788741C677.546667 872.997926 598.224593 1008.82963 498.839704 1008.82963c-99.252148 0-178.460444-135.433481-208.175408-331.188149z" fill="#507CF3" p-id="1606"></path><path d="M512 1008.82963C237.605926 1008.82963 15.17037 786.394074 15.17037 512 15.17037 237.605926 237.605926 15.17037 512 15.17037 786.394074 15.17037 1008.82963 237.605926 1008.82963 512c0 274.394074-222.435556 496.82963-496.82963 496.82963z m0-45.511111c249.249185 0 451.318519-202.069333 451.318519-451.318519S761.249185 60.681481 512 60.681481 60.681481 262.750815 60.681481 512 262.750815 963.318519 512 963.318519z" fill="#507CF3" p-id="1607"></path><path d="M64.265481 376.737185v-45.511111H959.715556v45.511111H64.284444zM959.715556 647.262815v45.511111H64.284444v-45.511111H959.715556z" fill="#507CF3" p-id="1608"></path><path d="M118.139259 429.131852h31.288889l31.744 128.720592h0.948148l33.431704-128.701629h28.672l33.431704 128.701629h0.948148l31.762963-128.701629h31.288889l-48.82963 169.244444h-29.392593l-32.957629-127.29837h-0.948148l-33.185185 127.29837H166.72237L118.120296 429.131852z m241.284741 0h27.742815v70.656h85.807407V429.131852h27.723852v169.244444h-27.723852v-74.903703h-85.807407v74.903703h-27.742815V429.131852z m249.609481-3.299556c25.903407 0 46.288593 8.362667 61.155556 25.125926 14.222222 15.796148 21.333333 36.807111 21.333333 63.051852 0 25.903407-7.111111 46.838519-21.333333 62.805333-14.866963 16.592593-35.252148 24.89837-61.155556 24.898371-25.92237 0-46.307556-8.38163-61.155555-25.125926-14.070519-15.966815-21.105778-36.826074-21.105778-62.577778 0-25.92237 7.035259-46.857481 21.105778-62.824296 14.52563-16.914963 34.910815-25.353481 61.155555-25.353482z m0 24.405334c-17.389037 0-30.985481 5.935407-40.77037 17.787259-9.178074 11.207111-13.748148 26.548148-13.748148 45.985185 0 19.26637 4.570074 34.512593 13.748148 45.738667 9.481481 11.700148 23.058963 17.540741 40.77037 17.54074 17.540741 0 31.04237-5.613037 40.523852-16.820148 9.329778-11.226074 13.994667-26.718815 13.994667-46.459259 0-19.759407-4.664889-35.403852-13.994667-46.933333-9.329778-11.226074-22.831407-16.839111-40.523852-16.839111z m108.562963-21.086815h27.723852v169.244444h-27.723852V429.131852z m120.642371-3.318519c20.081778 0 35.65037 4.096 46.705778 12.325926 11.851852 8.836741 18.640593 22.509037 20.385185 40.997926h-27.496297c-2.37037-10.42963-6.712889-17.938963-13.046518-22.509037-6.011259-4.589037-15.322074-6.883556-27.97037-6.883555-10.752 0-18.887111 1.517037-24.405334 4.513185-6.959407 3.470222-10.42963 9.310815-10.429629 17.54074 0 7.414519 3.944296 13.179259 11.851851 17.294223 3.792593 2.048 13.425778 5.537185 28.918519 10.429629 22.281481 6.788741 37.05363 12.325926 44.316444 16.592593 14.696296 8.685037 22.053926 20.859259 22.053926 36.503704 0 15.17037-5.935407 27.173926-17.787259 36.029629-12.003556 8.685037-28.747852 13.046519-50.251852 13.046519-20.859259 0-37.129481-4.039111-48.829629-12.098371-14.373926-9.955556-22.110815-25.675852-23.22963-47.160888h27.496296c1.896296 12.951704 6.485333 22.110815 13.748148 27.496296 6.807704 4.892444 17.066667 7.338667 30.814815 7.338666 12.325926 0 22.129778-2.048 29.392593-6.162962 7.281778-4.41837 10.903704-10.05037 10.903704-16.820149 0-9.007407-5.290667-16.118519-15.872-21.333333-3.792593-1.896296-14.791111-5.613037-32.95763-11.150222-21.010963-6.637037-33.962667-11.377778-38.874074-14.222222-12.951704-7.736889-19.437037-19.114667-19.437037-34.133334 0-15.17037 6.314667-26.927407 18.962963-35.309037 11.700148-8.229926 26.699852-12.325926 45.037037-12.325926z" fill="#507CF3" p-id="1609"></path></svg>
